<?xml version="1.0"?>
<svg xmlns="http://www.w3.org/2000/svg" xmlns:xlink="http://www.w3.org/1999/xlink" version="1.1" id="Capa_1" x="0px" y="0px" viewBox="0 0 512 512" style="enable-background:new 0 0 512 512;" xml:space="preserve" width="512px" height="512px" class=""><g><g>
	<path style="fill:#0070bf" d="M181.333,53.333H96c-17.673,0-32,14.327-32,32v64C64,155.224,68.776,160,74.667,160h128   c5.891,0,10.667-4.776,10.667-10.667v-64C213.333,67.66,199.006,53.333,181.333,53.333z" data-original="#0070bf" class="active-path" data-old_color="#0070bf"/>
	<path style="fill:#0070bf" d="M416,53.333h-85.333c-17.673,0-32,14.327-32,32v64c0,5.891,4.776,10.667,10.667,10.667h128   c5.891,0,10.667-4.776,10.667-10.667v-64C448,67.66,433.673,53.333,416,53.333z" data-original="#0070bf" class="active-path" data-old_color="#0070bf"/>
</g><path style="fill:#0070bf" d="M480,138.667H32c-17.673,0-32,14.327-32,32V448c0,5.891,4.776,10.667,10.667,10.667h490.667  c5.891,0,10.667-4.776,10.667-10.667V170.667C512,152.994,497.673,138.667,480,138.667z" data-original="#0070bf" class="" data-old_color="#0070bf"/></g> </svg>
